M48
; DRILL file {KiCad 7.0.11-2.fc39} date jeu. 04 avril 2024 23:00:59
; FORMAT={-:-/ absolute / metric / decimal}
; #@! TF.CreationDate,2024-04-04T23:00:59+02:00
; #@! TF.GenerationSoftware,Kicad,Pcbnew,7.0.11-2.fc39
; #@! TF.FileFunction,MixedPlating,1,2
FMAT,2
METRIC
; #@! TA.AperFunction,Plated,PTH,ViaDrill
T1C0.400
; #@! TA.AperFunction,Plated,PTH,ViaDrill
T2C0.700
; #@! TA.AperFunction,Plated,PTH,ComponentDrill
T3C0.800
; #@! TA.AperFunction,Plated,PTH,ComponentDrill
T4C0.850
; #@! TA.AperFunction,Plated,PTH,ComponentDrill
T5C1.000
; #@! TA.AperFunction,Plated,PTH,ComponentDrill
T6C1.040
%
G90
G05
T1
X126.958Y-108.214
T2
X118.158Y-101.959
X148.558Y-96.064
X149.758Y-108.229
T3
X120.258Y-114.864
X122.258Y-114.864
X124.258Y-114.864
X126.258Y-114.864
X152.458Y-96.701
X152.458Y-98.701
X152.458Y-100.701
X152.458Y-102.701
T4
X147.177Y-115.629
X149.177Y-115.629
X151.177Y-115.629
X153.177Y-115.629
T5
X109.658Y-107.364
X109.658Y-109.904
X109.678Y-115.564
X110.758Y-96.764
X110.758Y-99.304
X110.758Y-101.844
X112.218Y-115.564
X114.758Y-115.564
X116.498Y-96.264
X119.038Y-96.264
X121.578Y-96.264
X124.118Y-96.264
X126.658Y-96.264
X129.198Y-96.264
X131.718Y-116.264
X134.258Y-116.264
X139.218Y-116.264
X139.318Y-96.164
X141.758Y-116.264
X141.858Y-96.164
X153.077Y-107.966
X153.077Y-110.506
T6
X108.877Y-93.529
X108.877Y-118.929
X111.417Y-93.529
X111.417Y-118.929
X113.957Y-93.529
X113.957Y-118.929
X116.497Y-93.529
X116.497Y-118.929
X119.037Y-93.529
X119.037Y-118.929
X121.577Y-93.529
X121.577Y-118.929
X124.117Y-93.529
X124.117Y-118.929
X126.657Y-93.529
X126.657Y-118.929
X129.197Y-93.529
X129.197Y-118.929
X131.737Y-93.529
X131.737Y-118.929
X134.277Y-93.529
X134.277Y-118.929
X136.817Y-93.529
X136.817Y-118.929
X139.357Y-93.529
X139.357Y-118.929
X141.897Y-93.529
X141.897Y-118.929
X144.437Y-93.529
X144.437Y-118.929
X146.977Y-93.529
X146.977Y-118.929
X149.517Y-93.529
X149.517Y-118.929
X152.057Y-93.529
X152.057Y-118.929
X154.597Y-93.529
X154.597Y-118.929
M30
