%TF.GenerationSoftware,KiCad,Pcbnew,7.0.11-2.fc39*%
%TF.CreationDate,2024-04-04T23:01:03+02:00*%
%TF.ProjectId,WifiCAN,57696669-4341-44e2-9e6b-696361645f70,rev?*%
%TF.SameCoordinates,Original*%
%TF.FileFunction,Soldermask,Top*%
%TF.FilePolarity,Negative*%
%FSLAX46Y46*%
G04 Gerber Fmt 4.6, Leading zero omitted, Abs format (unit mm)*
G04 Created by KiCad (PCBNEW 7.0.11-2.fc39) date 2024-04-04 23:01:03*
%MOMM*%
%LPD*%
G01*
G04 APERTURE LIST*
G04 Aperture macros list*
%AMRoundRect*
0 Rectangle with rounded corners*
0 $1 Rounding radius*
0 $2 $3 $4 $5 $6 $7 $8 $9 X,Y pos of 4 corners*
0 Add a 4 corners polygon primitive as box body*
4,1,4,$2,$3,$4,$5,$6,$7,$8,$9,$2,$3,0*
0 Add four circle primitives for the rounded corners*
1,1,$1+$1,$2,$3*
1,1,$1+$1,$4,$5*
1,1,$1+$1,$6,$7*
1,1,$1+$1,$8,$9*
0 Add four rect primitives between the rounded corners*
20,1,$1+$1,$2,$3,$4,$5,0*
20,1,$1+$1,$4,$5,$6,$7,0*
20,1,$1+$1,$6,$7,$8,$9,0*
20,1,$1+$1,$8,$9,$2,$3,0*%
G04 Aperture macros list end*
%ADD10R,1.700000X1.700000*%
%ADD11O,1.700000X1.700000*%
%ADD12R,2.200000X1.800000*%
%ADD13O,2.200000X1.800000*%
%ADD14RoundRect,0.250000X-0.650000X0.412500X-0.650000X-0.412500X0.650000X-0.412500X0.650000X0.412500X0*%
%ADD15R,1.600000X1.600000*%
%ADD16C,1.600000*%
%ADD17RoundRect,0.311066X-0.877468X0.000000X0.877468X0.000000X0.877468X0.000000X-0.877468X0.000000X0*%
%ADD18R,2.377069X0.622132*%
%ADD19R,3.000000X1.499997*%
%ADD20R,3.000000X1.500000*%
%ADD21R,1.800000X2.200000*%
%ADD22O,1.800000X2.200000*%
%ADD23O,1.404000X1.804000*%
%ADD24RoundRect,0.102000X-0.600000X-0.800000X0.600000X-0.800000X0.600000X0.800000X-0.600000X0.800000X0*%
%ADD25C,1.700000*%
G04 APERTURE END LIST*
D10*
%TO.C,J8*%
X109657700Y-107363600D03*
D11*
X109657700Y-109903600D03*
%TD*%
D10*
%TO.C,J7*%
X139217700Y-116263600D03*
D11*
X141757700Y-116263600D03*
%TD*%
D10*
%TO.C,J11*%
X141857700Y-96163600D03*
D11*
X139317700Y-96163600D03*
%TD*%
%TO.C,J1*%
X116497700Y-96263600D03*
X119037700Y-96263600D03*
X121577700Y-96263600D03*
X124117700Y-96263600D03*
X126657700Y-96263600D03*
D10*
X129197700Y-96263600D03*
%TD*%
D12*
%TO.C,J10*%
X110757700Y-101843600D03*
D13*
X110757700Y-99303600D03*
X110757700Y-96763600D03*
%TD*%
D14*
%TO.C,C1*%
X116559631Y-108284800D03*
X116559631Y-105159800D03*
%TD*%
%TO.C,C2*%
X128459631Y-107322300D03*
X128459631Y-104197300D03*
%TD*%
D15*
%TO.C,J3*%
X120257700Y-114863600D03*
D16*
X122257700Y-114863600D03*
X124257700Y-114863600D03*
X126257700Y-114863600D03*
%TD*%
D17*
%TO.C,U1*%
X125192762Y-103853600D03*
X125192762Y-105123600D03*
X125192762Y-106393600D03*
X125192762Y-107663600D03*
X120357700Y-107663600D03*
X120357700Y-106393600D03*
X120357700Y-105123600D03*
D18*
X120357700Y-103853600D03*
%TD*%
D19*
%TO.C,JP2*%
X136376636Y-100638808D03*
X131876635Y-101908808D03*
D20*
X136376636Y-103178808D03*
X131876635Y-104448808D03*
X136376636Y-105718808D03*
X131876635Y-106988808D03*
X136376636Y-108258808D03*
X131876635Y-109528808D03*
%TD*%
D11*
%TO.C,J9*%
X131717700Y-116263600D03*
D10*
X134257700Y-116263600D03*
%TD*%
D13*
%TO.C,J5*%
X153076635Y-107966100D03*
D12*
X153076635Y-110506100D03*
%TD*%
D21*
%TO.C,J6*%
X114757700Y-115563600D03*
D22*
X112217700Y-115563600D03*
X109677700Y-115563600D03*
%TD*%
D19*
%TO.C,JP1*%
X146376637Y-100638808D03*
X141876635Y-101908808D03*
D20*
X146376637Y-103178808D03*
X141876635Y-104448808D03*
X146376637Y-105718808D03*
X141876635Y-106988808D03*
X146376637Y-108258808D03*
X141876635Y-109528808D03*
%TD*%
D23*
%TO.C,J4*%
X153176635Y-115628808D03*
X151176635Y-115628808D03*
X149176635Y-115628808D03*
D24*
X147176635Y-115628808D03*
%TD*%
D16*
%TO.C,J2*%
X152457700Y-96701100D03*
X152457700Y-98701100D03*
X152457700Y-100701100D03*
D15*
X152457700Y-102701100D03*
%TD*%
D25*
%TO.C,U2*%
X154596635Y-118928808D03*
X152056635Y-118928808D03*
X149516635Y-118928808D03*
X146976635Y-118928808D03*
X144436635Y-118928808D03*
X141896635Y-118928808D03*
X139356635Y-118928808D03*
X136816635Y-118928808D03*
X134276635Y-118928808D03*
X131736635Y-118928808D03*
X129196635Y-118928808D03*
X126656635Y-118928808D03*
X124116635Y-118928808D03*
X121576635Y-118928808D03*
X119036635Y-118928808D03*
X116496635Y-118928808D03*
X113956635Y-118928808D03*
X111416635Y-118928808D03*
X108876635Y-118928808D03*
X154596635Y-93528808D03*
X152056635Y-93528808D03*
X149516635Y-93528808D03*
X146976635Y-93528808D03*
X144436635Y-93528808D03*
X141896635Y-93528808D03*
X139356635Y-93528808D03*
X136816635Y-93528808D03*
X134276635Y-93528808D03*
X131736635Y-93528808D03*
X129196635Y-93528808D03*
X126656635Y-93528808D03*
X124116635Y-93528808D03*
X121576635Y-93528808D03*
X119036635Y-93528808D03*
X116496635Y-93528808D03*
X113956635Y-93528808D03*
X111416635Y-93528808D03*
D10*
X108876635Y-93528808D03*
%TD*%
M02*
