M48
METRIC
T1C0.700
T2C0.800
T3C0.800
T4C1.000
T5C1.020
T6C1.100
T7C1.500
T8C3.500
T9C3.500
%
G90
G05
T1
X137.16Y-86.36
X137.16Y-88.9
X137.16Y-91.44
X137.16Y-93.98
X137.16Y-96.52
T2
X96.0Y-104.95
X102.45Y-85.3
X111.0Y-57.0
X114.0Y-85.0
X122.1Y-82.0
X124.75Y-42.85
X125.8Y-101.05
X126.25Y-121.75
X128.75Y-55.225
X129.65Y-40.25
X131.9Y-73.05
X138.2Y-75.55
X145.25Y-77.2
X150.0Y-52.0
X152.0Y-89.0
X162.4Y-43.0
T3
X95.95Y-48.75
X95.95Y-52.55
X95.95Y-57.85
X100.95Y-48.75
X102.755Y-114.225
X102.755Y-116.725
X103.575Y-104.625
X103.595Y-109.125
X105.25Y-84.05
X105.25Y-87.75
X106.11Y-52.55
X106.11Y-57.85
X109.25Y-112.65
X109.25Y-117.65
X109.35Y-120.8
X109.35Y-125.8
X110.25Y-84.05
X110.25Y-87.75
X113.735Y-104.625
X113.755Y-109.125
X113.8Y-112.6
X113.8Y-117.6
X113.9Y-121.02
X113.9Y-131.18
X155.345Y-90.335
X155.37Y-94.235
X155.588Y-46.55
X155.588Y-50.45
X157.94Y-78.95
X157.94Y-82.85
X158.22Y-125.5
X158.3Y-121.445
X160.345Y-90.335
X160.37Y-94.235
X160.588Y-46.55
X160.588Y-50.45
X162.9Y-86.75
X163.2Y-129.15
X167.9Y-86.75
X168.1Y-78.95
X168.1Y-82.85
X168.2Y-129.15
X168.38Y-125.5
X168.46Y-121.445
T4
X90.26Y-109.27
X92.8Y-109.27
X95.34Y-109.27
X103.455Y-122.25
X103.455Y-124.79
X120.42Y-47.0
X120.42Y-59.0
X122.96Y-47.0
X122.96Y-59.0
X125.5Y-47.0
X125.5Y-59.0
X146.46Y-127.0
X149.0Y-127.0
T5
X121.92Y-86.36
X121.92Y-88.9
X121.92Y-91.44
X121.92Y-93.98
X121.92Y-96.52
X121.92Y-99.06
X121.92Y-101.6
X121.92Y-104.14
X121.92Y-106.68
X121.92Y-109.22
X121.92Y-111.76
X121.92Y-114.3
X121.92Y-116.84
X121.92Y-119.38
X121.92Y-121.92
X137.16Y-99.06
X137.16Y-101.6
X137.16Y-104.14
X137.16Y-106.68
X137.16Y-109.22
X137.16Y-111.76
X137.16Y-114.3
X137.16Y-116.84
X137.16Y-119.38
X137.16Y-121.92
T6
X103.89Y-93.99
X103.89Y-99.79
X114.05Y-93.99
X114.05Y-99.79
T7
X96.225Y-78.205
X96.225Y-83.285
X96.235Y-93.765
X96.235Y-98.845
X96.275Y-64.645
X96.275Y-69.725
X167.857Y-51.58
X167.857Y-56.66
X167.857Y-65.53
X167.857Y-70.61
X167.92Y-95.295
X167.92Y-100.375
X167.92Y-109.195
X167.92Y-114.275
T8
X91.45Y-37.0
X172.0Y-37.0
T9
X92.8Y-125.93
T0
M30
